<svg xmlns="http://www.w3.org/2000/svg" viewBox="0 0 145.87 140.98"><defs><style>.cls-1{fill:#4d224c;}.cls-2{fill:#686868;}</style></defs><g id="Layer_2" data-name="Layer 2"><g id="Layer_1-2" data-name="Layer 1"><path class="cls-1" d="M91.55,141q0-24.16,0-48.34a7,7,0,0,1,0-1.12c.18-1.15-.45-3.1,1.2-3.08s1.12,2,1.13,3.13c0,8.62,0,17.24,0,25.86,0,3.57.88,4.07,4,2.35,4.12-2.24,6.65-5.53,6.67-10.24,0-9,0-18,0-27a8.81,8.81,0,0,0-4.69-8.1c-14.33-8.23-29.38-9.38-45-4.14-1.7.57-3.36,1.28-5,2C44,74.89,41,79.08,41.24,85.57c.28,7.24,0,14.49.08,21.74,0,5.35,2,9.77,7,12.57,3.3,1.88,4.28,1.3,4.3-2.42,0-8.37,0-16.74,0-25.11,0-1.28-.32-2.68,1.67-3.74V141H52.75c0-4.74-.17-9.49-.11-14.23,0-2.13-.57-3.37-2.83-4.19-7.09-2.57-10.5-7.61-10.37-15,.14-8,.11-16,0-24-.06-5,2-8.76,6.4-11.17,17.6-9.59,35.43-9.67,53.3-.79,5.09,2.53,7.73,6.47,7.44,12.43-.4,8.22-.25,16.48,0,24.72.15,6.64-3.19,11-9.16,13.4-2.83,1.14-3.6,2.66-3.51,5.35.15,4.49,0,9,0,13.48Z"/><path class="cls-2" d="M131.12,141a9.13,9.13,0,0,1-.69-4q0-18,0-36a7,7,0,0,1,0-1.12c.16-.94-.05-2.35,1.3-2.34s1.11,1.45,1.12,2.35c0,7.37,0,14.74.07,22.1,0,1.65-1,4,.93,4.8s4-.42,5.76-1.44a7,7,0,0,0,3.9-6.45q0-13.67,0-27.34c0-4.09-2.31-6.78-5.64-8.79a43.51,43.51,0,0,0-19.73-6.05c-1-.07-2.07,0-3.09-.06s-2.51.32-2.53-1c0-1.53,1.67-1.34,2.71-1.33a47.26,47.26,0,0,1,6.17.52c6.57,1,12.84,2.81,18.37,6.52a16.47,16.47,0,0,1,6.06,7.14v33c-1.26,2.7-3,5.54-5.94,6-7.25,1.19-7.76,5.72-7.05,11.26a9.93,9.93,0,0,1-.21,2.22Z"/><path class="cls-2" d="M13.18,141a23,23,0,0,1-.09-3c.41-4.89.56-9.11-6.34-10.33-3.93-.69-6.17-4.32-6.4-8.51-.51-9.36-.41-18.72,0-28.09.18-4.58,2.76-7.7,6.54-10C14,76.66,22,74.69,30.35,74.28a9,9,0,0,1,1.93.15c.64.11,1.42.34,1.44,1,0,1-.9,1.13-1.66,1.14a53.56,53.56,0,0,0-9.63.87A39.52,39.52,0,0,0,6.87,83.84a9.46,9.46,0,0,0-4.31,8c-.07,9-.12,18,0,27,.07,4.17,3.94,7.69,8.24,8.14,2.66.28,2.19-1.59,2.21-3,.05-7.12,0-14.24,0-21.37,0-1,0-2,0-3s0-2,1.16-2.07c1.52-.09,1.36,1.26,1.37,2.19q.07,9,0,18c0,7.74-.11,15.49-.18,23.23Z"/><path class="cls-2" d="M107.07,0c10.68,4.81,13.6,19,5.3,26.27-4.81,4.19-10.5,4.58-16.25,2.28-5.43-2.18-7.63-6.49-7.93-12.15C87.78,8.83,89.76,2.86,97.76,0Zm7.05,13.71c.07-2.69.2-6.32-3-9.06-4.76-4.06-14.53-3.54-18.31,1s-2.68,16.55,1.82,19.64a12.26,12.26,0,0,0,1.67.92C106,30.78,114.12,25.48,114.12,13.71Z"/><path class="cls-2" d="M48.87,0c9,4.18,10.58,10,8.45,20.85-1.07,5.49-7,9-13.62,9-7-.06-12.09-3.59-13.67-9.46C27.52,11,30.17,4.83,38.78,0ZM32,14.73c0,9,3.5,12.79,11.7,12.82,8,0,12-4.21,12-12.68,0-8.69-4.13-13.22-12-13.12S32,6.14,32,14.73Z"/><path class="cls-2" d="M13.07,52.23c0-9.77,5.22-15.25,14.56-15.18,9.06.06,14.19,5.53,14.17,15.11,0,9.8-5.13,15-14.68,14.94C18.13,67,13.1,61.71,13.07,52.23Zm2.62-.12C15.69,60.7,19.62,65,27.39,65c6,0,12.53-3.22,12.07-12.74-.42-8.75-4-13.09-12.07-13.07C19.56,39.23,15.69,43.5,15.69,52.11Z"/><path class="cls-1" d="M87,42.86c0,9.62-4.77,14.85-13.64,14.94-9.28.11-14.47-5.33-14.45-15.15,0-9.42,5.31-15,14.3-15S87,33,87,42.86Zm-25.72-.37c0,7.62,1.85,11.15,7.18,12.53,8.09,2.1,17.44-.85,16.72-11.62-.07-1,0-2,0-3-.22-6.15-4.08-10-10.4-10.36C65.27,29.49,61.32,33.14,61.31,42.49Z"/><path class="cls-2" d="M132.86,52.16c.66,6.27-1.63,11.2-7.89,13.88-5.65,2.43-12.88,1-16.91-3-5.24-5.19-5-17.34.44-22.37,5.72-5.28,15.94-4.86,21.33.84C132.69,44.58,133.14,48.2,132.86,52.16Zm-2,0c0-8.54-4-12.89-11.88-13-8.12-.08-12.39,4.42-12.36,13,0,8.39,4.25,12.81,12.2,12.79S130.82,60.65,130.83,52.18Z"/></g></g></svg>