<svg xmlns="http://www.w3.org/2000/svg" viewBox="0 0 121.48 123.37"><defs><style>.cls-1{fill:#4d224c;}.cls-2{fill:#686868;}</style></defs><g id="Layer_2" data-name="Layer 2"><g id="Layer_1-2" data-name="Layer 1"><path class="cls-1" d="M44.88,100.27c-1.11-.28-.94-1.17-.94-1.84-.06-7.06-3.45-12.55-8-17.66-10.1-11.44-10.74-28.37-1.68-40C44.07,28.17,60.9,24,74.63,30.81,95,40.86,99.71,64.3,84.78,81.68c-4.12,4.79-7.37,9.75-7,16.39.06.93.13,2.46-1.11,2.38-1.48-.09-1.17-1.72-1.1-2.76A24.34,24.34,0,0,1,82,82.09c6-6.44,9.58-13.79,9.33-22.93A30.2,30.2,0,0,0,60,29.7c-21.19.94-34.46,19.44-28.47,39.74A28.19,28.19,0,0,0,37.7,80c4.29,4.85,8,10,7.93,16.88C45.62,98,46.13,99.39,44.88,100.27Z"/><path class="cls-1" d="M60.53,111.59c-5.23,0-10.46,0-15.69,0-1,0-2.7.35-2.81-1.06-.12-1.61,1.59-1.22,2.59-1.23q16.05-.06,32.12,0c1,0,2.71-.34,2.64,1.19s-1.74,1.09-2.79,1.1C71.24,111.62,65.88,111.59,60.53,111.59Z"/><path class="cls-2" d="M60.76,100.55c-1.59-.88-1.1-2.26-1.12-3.39-.07-3.87-.41-7.78.06-11.59.65-5.26-1.57-8.78-5.47-11.8-1.34-1-4.19-2.46-2.77-4s2.9,1.39,4.11,2.54c5,4.78,4.88,4.79,9.92.16,1.37-1.26,3.5-4,4.51-2.77,1.31,1.58-1.59,3.22-3,4.31A13.61,13.61,0,0,0,61.5,87.4a73.27,73.27,0,0,1,.06,9.72C61.54,98.27,61.82,99.56,60.76,100.55Z"/><path class="cls-1" d="M79.11,123.37H41.92C44.12,121.76,74.21,121.29,79.11,123.37Z"/><path class="cls-2" d="M1.35,25c.36.18.92.44,1.46.75,6.7,3.81,13.41,7.6,20.09,11.45.87.51,2.51.94,1.7,2.33-.65,1.11-1.81.08-2.61-.37Q11.76,33.36,1.58,27.49C.86,27.08-.1,26.75,0,25.64.06,25,.58,24.92,1.35,25Z"/><path class="cls-2" d="M23.48,80.18c.65-.13,1.08,0,1.25.59s-.26,1-.66,1.2c-1.8,1.1-3.61,2.18-5.44,3.22q-8.08,4.62-16.2,9.18c-.69.39-1.68,1.12-2.29.07-.46-.8.43-1.32,1.06-1.68q10.67-6.11,21.35-12.19A7.23,7.23,0,0,1,23.48,80.18Z"/><path class="cls-2" d="M98.86,80.42c6.9,4,14.52,8.51,22.13,13a.74.74,0,0,1,.12,1.26,1.55,1.55,0,0,1-1.33.09c-1.78-.9-3.52-1.87-5.25-2.86Q106.25,87.19,98,82.42c-.62-.36-1.4-.74-1.18-1.67C96.94,80.19,97.47,80.11,98.86,80.42Z"/><path class="cls-1" d="M41.94,59.33c-2.46-8.84,9.56-20.69,18.36-18C50.17,43.33,43.77,49,41.94,59.33Z"/><path class="cls-2" d="M81.41,24.34c-.78-1.08,0-1.9.47-2.71Q87.61,11.79,93.4,2c.52-.88,1-2.6,2.29-1.79s-.07,2-.57,2.9q-5.58,9.72-11.27,19.35C83.32,23.37,82.88,24.56,81.41,24.34Z"/><path class="cls-2" d="M96.74,39.54c-.26-1.27.67-1.65,1.38-2.06q10.22-5.88,20.46-11.68c.8-.46,2-1.51,2.63-.47,1,1.48-.87,1.81-1.67,2.27-6.68,3.89-13.41,7.68-20.13,11.49C98.57,39.56,97.72,40.18,96.74,39.54Z"/><path class="cls-2" d="M26.21.07A2.65,2.65,0,0,1,27.8,1.6q5.93,10.14,11.84,20.28c.41.72,1.16,1.69.19,2.31s-1.51-.47-1.92-1.17q-6.06-10.29-12-20.6C25.42,1.63,24.71.62,26.21.07Z"/></g></g></svg>