<svg xmlns="http://www.w3.org/2000/svg" viewBox="0 0 125.57 135.58"><defs><style>.cls-1{fill:#4d224c;}.cls-2{fill:#686868;}</style></defs><g id="Layer_2" data-name="Layer 2"><g id="Layer_1-2" data-name="Layer 1"><path class="cls-1" d="M62.86,28.61c13.37,0,26.74.1,40.11-.07,3.62,0,4.72,1.2,4.7,4.76q-.19,34.67,0,69.35c0,3.86-1.32,4.88-5,4.86q-40.29-.17-80.59,0c-3.61,0-4.74-1.21-4.73-4.77q.18-34.68,0-69.35c0-3.87,1.34-4.9,5-4.85C35.87,28.71,49.36,28.61,62.86,28.61Zm-.4,76.54c13,0,26-.09,39,.07,3.47,0,4.5-1.17,4.47-4.56q-.21-24,0-48c0-3.46-1.1-4.5-4.51-4.49q-38.6.16-77.19,0c-3.44,0-4.55,1.12-4.52,4.53q.2,24,0,48c0,3.45,1.17,4.55,4.57,4.51C37,105.07,49.72,105.15,62.46,105.15Zm.79-74.28c-10.86,0-21.72-.11-32.57,0C17.86,31.07,20,28.59,19.73,42.41c0,2.52,1,3.6,3.54,3.6q39.5,0,79,0c2.49,0,3.73-.88,3.6-3.5a44.6,44.6,0,0,1,0-6.74c.38-3.72-1-5-4.83-5C88.45,31,75.85,30.88,63.25,30.87Z"/><path class="cls-2" d="M68.45,127.88c1.76,3.17,4.83,4.47,5.53,7.7-3.62-2-6.34-5-8.92-8.13a1.43,1.43,0,0,1,.15-1.36,53.09,53.09,0,0,1,9.19-8.71c-.85,4.21-4.27,5.38-5.63,8,.93,1,2,.56,2.92.56q20.61,0,41.22,0c7.49,0,10.22-2.74,10.23-10.12q0-22.49,0-45a12.06,12.06,0,0,1,0-2.25c.22-1.2-.68-3.3,1.29-3.27,1.51,0,1,2,1,3.16,0,9.74,0,19.49,0,29.23,0,5.87.07,11.75,0,17.62-.14,8.82-3.9,12.51-12.62,12.52C98.28,127.89,83.68,127.88,68.45,127.88Z"/><path class="cls-2" d="M56,10.09H45.58c-11.62,0-23.23,0-34.85,0C5,10.14,2,13.1,2,18.93c-.06,15.61,0,31.22-.05,46.83,0,1.45.4,3-.65,4.36C-.43,69.77.07,68.39.07,67.44,0,50.83,0,34.22.07,17.61.1,11.93,4,8.28,10,8.25c14-.06,28,0,42,0h5.08c-2.32-2.44-4-4.17-5.64-5.94-.5-.53-1.11-1.22-.44-1.93s1.41-.14,1.94.37C55.24,3,57.53,5.3,59.82,7.6a1.64,1.64,0,0,1,0,2.61C57.39,12.59,55,15,52.61,17.34c-.42.41-1,.93-1.6.28s-.09-1.22.36-1.6c1.81-1.53,3.67-3,5.51-4.49Z"/><path class="cls-2" d="M60.44,76.67c0,5.11-.07,10.22,0,15.33.05,2.52-.89,3.62-3.49,3.6q-12.15-.12-24.3,0c-2.31,0-3.43-.82-3.41-3.27q.09-15.52,0-31c0-2.36.9-3.43,3.29-3.41q12.33.06,24.68,0c2.43,0,3.27,1.16,3.23,3.47C60.39,66.45,60.44,71.56,60.44,76.67Zm-29.25.4c0,4.49.06,9,0,13.46,0,2.17.7,3.21,3,3.18q10.65-.09,21.31,0c2.25,0,3.11-.9,3.1-3.12q-.09-13.65,0-27.29c0-2.3-1.07-3-3.21-3-7,.05-14,.07-20.94,0-2.43,0-3.32,1-3.27,3.36C31.26,68.09,31.19,72.58,31.19,77.07Z"/><path class="cls-2" d="M83.08,60.23c-4,0-8,0-12,0-.85,0-2.08,0-2.16-1-.12-1.45,1.3-1.29,2.2-1.29q12-.08,24,0c.85,0,2.08,0,2.16,1,.12,1.45-1.3,1.28-2.2,1.29C91.08,60.26,87.08,60.23,83.08,60.23Z"/></g></g></svg>