<svg xmlns="http://www.w3.org/2000/svg" viewBox="0 0 134.49 97.12"><defs><style>.cls-1{fill:#4d224c;}.cls-2{fill:#686868;}</style></defs><g id="Layer_2" data-name="Layer 2"><g id="Layer_1-2" data-name="Layer 1"><path class="cls-1" d="M0,7C2.36,1.07,3.78.1,10.32.09q20.94,0,41.87,0c7.34,0,9.89,2.38,9.93,9.34q.09,12.74,0,25.47c0,1.09.56,3-1.29,2.93-1.34,0-1-1.79-1-2.86-.06-4.87-.1-9.74,0-14.61.05-2.52-.95-3.59-3.64-3.58q-25,.09-50,0c-2.6,0-3.72.85-3.71,3.48q.09,27.15,0,54.32c0,2.53.93,3.58,3.62,3.57q25-.09,50,0c3,0,3.8-1.26,3.75-3.87-.1-5.12-.05-10.24,0-15.36,0-1-.35-2.66,1.28-2.61,1.25,0,1,1.55,1,2.49,0,10.11.12,20.23,0,30.34C62,94.37,59.15,97,53.77,97c-15,.07-30,0-45,0-4.86,0-7.66-2.39-8.8-6.83ZM31.43,80.4H9.75c-7.36,0-7.36,0-7.33,7.1,0,6.19,1.07,7.25,7.39,7.26,13.16,0,26.33,0,39.49,0,10.26,0,10.64-.48,10.5-10.3,0-3.12-1.26-4.16-4.37-4.11C47.43,80.49,39.43,80.4,31.43,80.4Zm-.3-66c8.13,0,16.26,0,24.39,0,1.48,0,3.17.34,4-1.49C62,7.39,58.87,2.43,52.74,2.42q-21.68-.06-43.36,0a15.8,15.8,0,0,0-3.08.21c-3.4.68-4.35,3.24-3.9,9,.25,3.34,2.61,2.84,4.73,2.85C15.13,14.46,23.13,14.44,31.13,14.44Z"/><path class="cls-2" d="M134.48,48.79c0,7.5,0,15,0,22.49,0,5.32-1.47,7.31-6.76,8.46-2.23.48-2.61,1.57-2.58,3.38,0,3.5-.06,7,0,10.5,0,2.27-.71,3.51-3.3,3.5q-16.68-.08-33.36,0c-2.35,0-3.23-1.12-3.21-3.24,0-3.5-.11-7,0-10.5.07-2.26-.77-3.24-3.14-3.81-4.35-1-6.09-3.41-6.23-7.91-.14-4.25-.07-8.5,0-12.75,0-1-.34-2.77,1.14-2.77,1.78,0,1.33,1.84,1.36,3,.08,4.12,0,8.24,0,12.37,0,4.45,1.35,6.28,5.77,6.34q21.14.3,42.28,0c4.36-.07,5.92-2.08,5.93-6.31q.06-22.87,0-45.74c0-4.44-1.93-6.43-6.64-6.46q-20.37-.16-40.73,0C80,19.32,78.52,21,78.46,26c0,3.37,0,6.74-.07,10.12,0,.86-.12,2-1.25,2s-1.2-1.16-1.2-2c0-4-.17-8,.14-12a6.76,6.76,0,0,1,6.23-6.65c2.66-.35,3-1.78,3-3.87-.07-3.38,0-6.75,0-10.13C85.24,1.22,86,0,88.63,0Q105.31.09,122,0c2.37,0,3.2,1.05,3.16,3.21-.06,3.49.07,7,0,10.49-.06,2.18.48,3.32,3,3.78,4.45.79,6.26,3.23,6.29,7.68C134.52,33,134.48,40.92,134.48,48.79ZM105.87,17.26h5.81c11.64,0,11.5,0,11.56-11.19,0-3.42-1.28-4.26-4.55-4.16-6.46.19-12.92.06-19.38.06C87.39,2,87.46,2,87.73,13.54c.06,2.67.86,3.86,3.79,3.76C96.3,17.14,101.08,17.25,105.87,17.26Zm-.39,77.95h6.21c11.63,0,11.5,0,11.55-11.22,0-3.41-1.27-4.27-4.55-4.18-6.46.2-12.93.06-19.39.06-11.74,0-11.65,0-11.58,11.23,0,3,.89,4.31,4.19,4.16C96.43,95.05,101,95.21,105.48,95.21Z"/><path class="cls-2" d="M101.27,49.31H33.67c2.19,2.17,3.88,3.8,5.51,5.47.5.52,1.27,1.15.36,1.86-.62.48-1.23,0-1.66-.49-2.66-2.87-7.91-4.87-8-8.15-.11-3.6,5.41-5.45,8-8.48.4-.46,1-1,1.65-.47.9.71.15,1.39-.38,1.85-1.72,1.49-3.52,2.9-5.29,4.35l.6,1h66.79l.78-.84c-1.81-1.51-3.64-3-5.42-4.55-.48-.4-1-1-.53-1.61.59-.81,1.42-.49,2,0,2.71,2.5,5.38,5,8,7.58.85.81.46,1.6-.25,2.28q-3.73,3.54-7.49,7.06c-.56.51-1.32,1.09-2,.5-1.09-.88,0-1.6.55-2.13,1.67-1.46,3.45-2.83,5.19-4.23Z"/></g></g></svg>