<svg xmlns="http://www.w3.org/2000/svg" viewBox="0 0 142.48 104.52"><defs><style>.cls-1{fill:#686868;}.cls-2{fill:#4d224c;}</style></defs><g id="Layer_2" data-name="Layer 2"><g id="Layer_1-2" data-name="Layer 1"><path class="cls-1" d="M9.46,104.52c-6.86-3-10-8.11-9.38-15.76.24-3.07,1.18-4.12,4.21-4.07,4.92.08,4.93-.07,4.94-4.92q0-35,0-70.08C9.24,2.23,11.41,0,18.76,0H123.69c7.18,0,9.58,2.38,9.59,9.7q.06,34.85,0,69.7c0,5.2,0,5.36,5,5.28,3.11-.06,4,1.11,4.15,4.14.38,7.4-2.85,12.42-9.26,15.69ZM71,2Q44.7,2,18.46,2c-5.38,0-7.25,1.83-7.25,7.2,0,23.86,0,47.73-.08,71.6,0,3.18,1.11,4,4.13,4,12.62-.12,25.25,0,37.87-.05,1.89,0,3.82-.06,5.32,1.31,4.89,4.5,10.76,5.09,17.07,4.79,3-.14,5.35-.78,7.18-3.13s4.24-3.06,7.23-3c12.12.13,24.25-.08,36.36.13,3.71.06,4.63-1.24,4.61-4.75-.13-23.49-.06-47-.07-70.48,0-6.32-1.32-7.61-7.77-7.62Q97,2,71,2Zm.41,100.82q27.9,0,55.82,0c7.88,0,12-3.69,13.08-11.44.55-4,0-4.62-4-4.63-14.48,0-29,.1-43.46-.07-4,0-7.34.55-9.86,3.94-.63.84-1.79,1.87-2.68,1.85-7.17-.12-14.8,2.39-21.08-3.45a7.2,7.2,0,0,0-5-2.27q-24.54,0-49.08,0c-2.33,0-2.93,1.08-3,3.22-.29,7.84,4.47,12.84,12.67,12.86C33.64,102.83,52.5,102.79,71.36,102.79Z"/><path class="cls-2" d="M83.7,63.27c5.86,0,11.71,0,17.56,0,1.06,0,2.75-.31,2.82,1s-1.63,1.18-2.65,1.18q-18.12.06-36.23,0c-1,0-2.73.32-2.63-1.19.09-1.34,1.78-1,2.83-1C71.5,63.25,77.6,63.27,83.7,63.27Z"/><path class="cls-2" d="M62.76,21.54h41.12v.81H62.77Z"/><path class="cls-2" d="M62.81,42.65h41v1.13q-20.51.45-41,0Z"/></g></g></svg>